<?xml version="1.0" encoding="UTF-8"?><svg id="uuid-4547d132-37e7-4d17-8d2f-5c022bbf5bb8" xmlns="http://www.w3.org/2000/svg" viewBox="0 0 595.47 276.01"><defs><style>.uuid-da233536-627d-44cb-875b-03ac36fe3c95{fill:#fff;}.uuid-ce618b4d-5a32-46f9-a1bd-4ec1c946a8f7{fill:#ea2026;}</style></defs><g><path class="uuid-ce618b4d-5a32-46f9-a1bd-4ec1c946a8f7" d="M29.93,253.59c-3.36-3.07-6.06-6.67-8.5-10.47-8.74-13.65-11.59-28.72-10.54-44.68,.56-8.53,2.29-16.85,5.06-24.94,.35-1.03,.53-2.08,.52-3.16-.01-2.12-1.06-2.78-3-1.83-1.64,.79-2.85,2.12-4.08,3.42-.55,.59-.88,1.42-1.85,1.77,.64-7.12,2.83-13.66,6.11-19.84,4.78-9.02,11.44-16.48,19.36-22.86,.35-.28,.68-.77,1.22-.49,.71,.38,.9,1.08,.92,1.82,.07,2.41-.39,4.76-.98,7.06-1.59,6.23-1.5,12.63-2.05,18.97-.17,1.9-.28,3.8-.39,5.7-.03,.49-.25,1.04,.33,1.66,9.28-10.55,18.16-21.48,31.66-27.04-1.55,5.76-2.31,11.72-3.36,17.64-.11,.61-.58,1.28,.29,1.73,4.16-2.84,8.34-5.65,12.48-8.52,3.55-2.45,7.45-2.93,11.6-2.27,1.25,.2,1.79,.54,.63,1.7-3.74,3.76-7.09,7.91-9.75,12.45-8.2,13.99-12.16,28.77-6.99,44.89,2.54,7.93,7.28,14.46,14.5,18.49,10.01,5.59,20.39,5.39,30.49-.23,10.76-5.98,18.8-14.76,25.44-24.96,1.35-2.07,1.31-2.08,3.27-.52,6.88,5.47,13.6,11.14,20.25,16.88,.57,.5,1,1.16,1.56,1.68,.45,.42,.39,.75,.14,1.24-4.05,7.77-8.57,15.23-14.11,22.05-9.91,12.19-21.85,21.59-36.95,26.45-18.83,6.05-37.31,5.44-55.34-3.29-9.04-4.38-16.15-10.91-22.22-18.74-.65-.84-1.32-1.7-2.11-2.41-1.54-1.38-3.04-.93-3.66,1.05-.68,2.21-.05,4.36,.36,6.52,.14,.76,.33,1.5,.5,2.26,.24,.77,.07,1.14-.8,.84Z"/><path class="uuid-ce618b4d-5a32-46f9-a1bd-4ec1c946a8f7" d="M115.74,140.9c2.16,5.04,6.49,6.82,11.47,7.54,2.82,.41,5.7,.34,8.48,1.11,3.92,1.07,5.83,3.81,6.55,7.63,.36,1.93,.66,3.86,1.27,5.74,.86,2.68,2.72,3.95,5.43,4.1,2.85,.15,5.71,.25,8.55,.64,3.46,.48,6.48,1.84,9.16,4.05,10.72,8.84,21.46,17.67,32.17,26.52,3.43,2.83,7.18,4.75,11.79,4.61,6.34-.19,11.96-5.45,12.48-11.79,.18-2.21,.11-4.39-.67-6.57,10.43,4.24,17.67,27.7,4.16,38.96,8.49,1.2,16.26,.03,23.24-4.86,2.98-2.08,5.11-4.9,6.12-8.39,2.21-7.63-.74-14.92-7.74-19.59-1.29-.86-2.68-1.53-4.08-2.18-.54-.47-.44-.81,.26-.82,1.27,0,2.55-.15,3.82,.1,13.36,.38,29.32,9.1,34.07,25.35,3.56,12.18-1.21,25.81-11.85,33.89-8.62,6.55-18.35,9.25-29.13,8.14-.24-.02-.47-.05-.71-.05-.11,0-.22,.05-.86,.21,8.51,5.8,17.32,8.12,27.13,5.95-.38,1.35-1.34,2.54-3.78,4.47-6.79,5.36-14.58,8.46-23.07,9.72-12.53,1.85-23.98-.51-33.35-9.58-6.48-6.27-10.34-13.99-11.51-22.98-.07-.52-.15-1.05-.24-1.61-5.81,3.96-8.48,18.17-1.17,27,.27,.44,.29,.75-.37,.72-4.3-1.43-7.93-3.92-11.08-7.12-6.79-6.89-8.53-15.34-7.67-24.63,.42-4.56,.83-9.12,.02-13.7-.88-4.95-3.17-9.06-6.91-12.34-5.85-5.12-11.83-10.07-17.84-15.01-4.16-3.42-8.58-6.55-12.36-10.44-4.17-4.29-6.49-9.39-6.61-15.34-.11-5.22-2.09-9.27-6.33-12.31-2.07-1.48-4.07-3.08-5.99-4.76-4.57-3.97-5.94-9.39-3.9-14.99,.64-.08,.61,.39,.59,.78-.04,.66,.11,1.24,.5,1.77Z"/><path class="uuid-ce618b4d-5a32-46f9-a1bd-4ec1c946a8f7" d="M46.08,77.66c-5.5-8.66-6.83-18.24-6.3-28.25,.37-7.12,2.14-13.92,5.39-20.19,3.74-7.2,9.17-13.11,15.68-17.98C72.37,2.63,85.56-.27,99.64,.02c11.12,.23,21.77,2.39,31.35,8.31,13.18,8.14,20.49,20.13,22.75,35.35,2.23,14.98-2.27,28.38-9.49,41.2-1.34,2.38-2.74,4.7-4.26,6.96-.3,.45-.57,1.27-1.45,.4-6.29-6.21-13.22-11.78-19.08-18.44-.12-.13-.21-.29-.34-.41-2.96-2.83-4.15-5.45-2.15-9.95,3.56-8,3.71-16.55,.34-24.86-2.94-7.24-8.34-11.5-16.14-12.27-7.6-.75-13.68,2.28-18.27,8.31-2.73,3.59-4.28,7.7-4.61,12.18-.23,3.09-.73,6.04-1.73,9.01-2.1,6.2-2.68,12.67-2.54,19.2,.01,.47,0,.94,0,1.41-.83,.11-1.28-.44-1.81-.77-6.17-3.85-10.49-9.12-12.9-16.06-1.55-4.47-3.6-8.77-5.53-13.4-1.03,1.85-1.39,3.69-1.93,5.45-1.63,5.34-3.66,10.56-4.88,16.03-.63,2.82-.61,5.67-.48,8.53,.04,.53,.55,1.2-.41,1.45Z"/><path class="uuid-ce618b4d-5a32-46f9-a1bd-4ec1c946a8f7" d="M233.07,95.6c.34-.03,.69-.06,1.03-.09,.15-.08,.34-.12,.41,.07,.12,.33-.1,.5-.36,.63-2.43,1.65-5.08,3-6.96,5.35-.41,.5-.8,1.05-1.05,1.64-.72,1.71,.26,3.14,2.12,3.1,2.18-.05,4.18-.92,6.17-1.65,12.97-4.71,25.68-3.91,38.14,1.77,6.17,2.81,11.86,6.42,16.9,10.99,.82,.74,1.51,1.62,2.25,2.44,.06,.39-.18,.61-.5,.49-1.14-.46-2.36-.13-3.51-.43-10.86-.41-21.32,1.46-31.35,5.66-1.98,.83-3.87,1.82-5.58,3.14-.58,.45-1.05,.63-1.74,.17-12.27-8.21-29.93-4.43-39.1,4.37-6.12,5.87-10.84,12.84-15.45,19.88-4.36,6.66-8.1,13.67-11.43,20.9-.52,1.13-.88,1.33-1.87,.46-1.82-1.61-3.76-3.09-5.65-4.64-3.76-3.07-7.36-6.37-12.5-7.98,16.77-21.14,35.52-38.99,62.53-45.6,1.07-.37,2.18-.48,3.29-.65,.33-.03,.67-.06,1-.08,.19-.11,.4-.18,.6-.25,.11-.05,.28,.03,.32-.15-.27,.08-.41-.11-.57-.25-.59,0-1.19,.02-1.78,.02-2.05,.2-4.1,.37-6.15,.64-5.78,.63-11.23,2.45-16.54,4.67-11.49,4.81-21.72,11.49-30.18,20.73-.24,.26-.51,.48-.77,.72-.88-.11-.46-.68-.4-1.12,1.7-5.63,4.64-10.63,7.92-15.44,5.46-8.02,11.98-15.02,20-20.55,.83-.57,1.69-1.09,2.73-1.49-.96,1.51-1.91,3.02-2.88,4.52-.75,1.16-1.32,2.39-1.75,3.7-.26,.8-.45,1.63,.33,2.3,.73,.63,1.52,.53,2.35,.23,2-.72,3.6-2.05,5.22-3.36,4.75-3.85,9.28-7.99,14.65-11.01,2.48-1.39,5.01-2.72,7.86-3.25,.78-.09,1.52-.32,2.25-.59Z"/><path class="uuid-ce618b4d-5a32-46f9-a1bd-4ec1c946a8f7" d="M162.12,127.94c-.71,.3-.78,.78-.98,1.18-1.72,2.6-3.85,4.8-6.72,6.15-.74,.37-1.42,.74-1.45-.68-.07-2.97-1.82-4.9-4.36-6.01-1.25-.57-1.45-1.22-1.32-2.43,.54-4.97-.57-9.66-2.74-14.15-3.58-7.36-9.09-13.14-15.03-18.58-6.35-5.81-12.87-11.45-18.17-18.31-4.73-6.08-8.14-12.7-8.24-20.64,0-.14-.17-.24-.37-.44-.2,.3-.37,.54-.51,.78-2.77,5.88-3.61,12.03-2.33,18.44,.2,1.08,.47,2.16,1.28,3.07,3.01,3.34,6.38,6.35,9.73,9.36,6.62,6.01,13.38,11.89,17.74,19.93,.24,1.01,.81,1.86,1.22,2.8,.17,.24,.34,.47,.47,.71,.14,.17,.2,.34,.27,.54,.03,.03,.07,.1,.07,.17,0,0-.03-.03-.1-.1-.07-.2-.14-.41-.24-.61-.1-.17-.24-.37-.41-.54-.03-.07-.07-.1-.07-.17-.51-.84-.95-1.72-1.93-2.13-.37-.47-.71-.95-1.08-1.42-.3-.54-.68-1.01-1.15-1.42-3.21-3.18-6.38-6.35-9.73-9.39-6.82-6.15-13.92-12.03-19.8-19.15-4.76-5.78-8.45-12.03-9.22-19.66-.14-1.35-.17-2.7-.24-4.05-.81,.68-1.32,1.39-1.72,2.2-1.59,3.07-2.47,6.42-3.07,9.83-1.15,6.72-1.42,13.44,.27,20.17,.27,1.05,.57,2.03,1.59,2.67,5.13,3.28,9.32,7.43,12.06,12.94,.27,.57,.1,1.28,.41,1.89,.07,.07,.1,.17,.17,.24,0,0,0,.03,.03,.07-.1-.1-.17-.2-.2-.3-.37-.54-.78-1.01-1.32-1.35-2.2-2.26-4.53-4.36-7.13-6.15-5.34-3.68-11.18-6.59-16.65-10-6.32-3.92-12.16-8.31-15.74-15.1-.24-.44-.54-.74-1.22-.95-1.59,6.86-.74,13.31,2.87,19.86-7.09-1.79-13.88-2.2-20.88-1.96,.2,.34,.24,.44,.34,.51,.27,.2,.61,.37,.88,.57,4.29,3.07,8.28,6.45,10.64,11.28,1.39,2.77,.91,4.56-1.45,6.59-1.25,1.08-2.67,1.99-4.12,2.84-8.34,4.9-17.43,8.68-24.73,15.27,0,.61,.34,.64,.81,.44v-.03c1.25-.57,2.67-.41,3.99-.68,2.91-.03,5.81-.27,8.72-.03,5.51,.47,9.42,3.38,10.61,7.97,.51,1.99,.41,4.02,.03,6.01-.44,2.74-1.01,5.44-1.55,8.17-.14,.51-.51,1.08,.3,1.38,9.56-8.14,19.96-14.8,32.23-18.21,.24-.2,.24-.44,0-.68-3.68-1.01-7.47-1.66-11.32-2.26,10.2-9.83,22.57-12.94,36.35-11.65,.17,.17,.41,.3,.71,.3t.07,.03c-.1-.03-.2,0-.3,0-.41,.1-.81,.14-1.18,.27-7.97,1.05-15.64,3.01-22.87,7.67,4.56,1.18,8.82,1.82,12.94,3.55-.78,.41-1.32,.68-1.82,.98-6.45,3.61-11.55,8.58-14.73,15.37-.2,.74-.41,1.45,.84,1.18,2.3-.95,4.66-1.79,7.16-2.03,6.11-.57,11.86,.34,16.35,4.9,5.74,5.84,4.66,17.03-2.06,22.73-.34,.27-.95,.37-.78,1.08,3.34,.17,6.59-.54,9.97-1.18-1.45,4.43-4.73,7.06-8.24,9.8,9.7-.07,22.67-7.3,24.32-14.02-.81,.14-1.55,.3-2.33,.34-4.29,.3-6.42-.91-5.98-5.57,.1-.95,.1-1.93,.27-2.84,.34-1.79,.78-3.55,1.18-5.3-.57-.07-.74,.34-1.01,.54-1.18,.88-2.36,1.96-4.02,1.22-1.79-.84-1.99-2.53-1.96-4.26,0-.61,.1-1.18,.2-1.79,.51-3.01,1.49-5.88,2.91-8.55,.61-1.15,.3-1.38-.78-1.66-3.38-.81-6.79-1.18-10.27-1.39-.3-.34-.71-.14-1.22-.2,.57,0,.91-.2,1.22-.44,5.64-1.69,11.42-2.4,17.23-2.8,3.55-.24,7.13-.34,10.67,.41,4.46,.91,5.57,2.77,4.09,7.09-.44,1.35-1.18,2.6-1.76,3.88-.2,.51-.78,.91-.57,1.59,5-.03,9.93,.1,14.63,1.89,2.36,.95,4.22,2.36,5.47,4.76,1.49,2.77,1.32,5.57,.95,8.48,0,.64,.37,.61,.81,.44,7.87-5.03,11.86-12.53,13.58-21.45,1.01-3.21,.78-6.49,.54-9.83Zm-33.54-3.58c-5.07-.44-8.01-3.55-9.83-7.9-.68-1.62-1.55-3.21-1.52-5.2,5.84,2.36,9.76,6.42,12.23,11.96,.51,1.08,.1,1.25-.88,1.15Z"/></g><path class="uuid-ce618b4d-5a32-46f9-a1bd-4ec1c946a8f7" d="M366.41,181.93c-3.92,8.14-10.03,9.72-13.32,9.94-.32,.02-.64,.03-.95,.03-5.24,0-10.53-2.8-13.39-7.17-4.3-6.57-7.7-17.19-11.8-32.2-2.56-9.39-7.51-12.09-10.81-12.82v33.72h-6.98V97.5h3.49c.71,0,1.48-.02,2.29-.04,5.51-.12,13.06-.28,17.51,4.07,2.2,2.15,3.31,5.05,3.31,8.62v16.58c0,3.06-1,9.32-8.51,11.78,2.63,2.78,4.95,6.69,6.44,12.18,3.91,14.35,7.1,24.41,10.9,30.21,1.67,2.55,4.96,4.2,8.05,4,3.11-.21,5.7-2.28,7.49-6l6.29,3.03Zm-50.28-49.38c1.15,.01,2.48,.02,3.82,.02,8.82,0,8.82-3.94,8.82-5.84v-16.58c0-2.19-.69-3.12-1.21-3.63-2.16-2.12-7.29-2.18-11.43-2.1v28.13Z"/><path class="uuid-ce618b4d-5a32-46f9-a1bd-4ec1c946a8f7" d="M374.2,110.7v16.58c0,3.85-1.54,12.82-15.8,12.82-1.34,0-2.67,0-3.82-.02v33.9h-6.98V98.04h3.49c.71,0,1.48-.02,2.29-.04,5.5-.12,13.06-.28,17.51,4.07,2.2,2.15,3.31,5.05,3.31,8.62Zm-6.98,0c0-2.19-.69-3.12-1.21-3.63-2.16-2.12-7.29-2.18-11.43-2.1v28.13c1.15,.01,2.48,.02,3.82,.02,8.82,0,8.82-3.94,8.82-5.84v-16.58Z"/><path class="uuid-ce618b4d-5a32-46f9-a1bd-4ec1c946a8f7" d="M414.62,140.21c-.37,0-.72-.02-1.08-.06v16.15c0,11.23-5.91,17.67-16.22,17.67-10.92,0-16.22-5.21-16.22-15.93v-38.19c0-9.37,1.68-21.82,16.22-21.82s16.22,11.66,16.22,21.82h-6.98c0-13.75-4-14.84-9.24-14.84-4.87,0-9.24,1.13-9.24,14.84v38.19c0,6.86,2.16,8.95,9.24,8.95,4.57,0,9.24-1.27,9.24-10.69v-18.96c-1.78-1.11-2.98-1.79-4.51-1.79-3.8,0-5.77,2.91-5.79,2.94l-5.88-3.76c1.46-2.29,5.56-6.16,11.67-6.16,3.64,0,6.24,1.62,8.32,2.92,3.22,2.01,5,3.12,11.07-1.58l4.28,5.52c-4.55,3.53-8.1,4.78-11.1,4.79Z"/><path class="uuid-da233536-627d-44cb-875b-03ac36fe3c95" d="M455.67,132.43v41.55h-4.92v-26.1c-.48,.02-.96,.04-1.41,.04-3.48,0-6.38-.48-8.83-1.24v27.31h-4.92v-29.53c-5.51-3.43-7.02-8.22-7.12-8.56l4.71-1.42c.05,.17,.63,1.87,2.41,3.7v-5.71c-.01-.54-.03-5.85,3.29-9.25,1.69-1.72,3.96-2.63,6.59-2.63,7.95,0,10.15,7.75,10.2,11.85Zm-4.92,10.53v-10.5c-.01-.68-.28-6.96-5.28-6.96-1.31,0-2.31,.38-3.07,1.15-1.61,1.64-1.91,4.78-1.89,5.76v9.02c2.51,1.04,5.85,1.71,10.24,1.54Z"/><path class="uuid-da233536-627d-44cb-875b-03ac36fe3c95" d="M487.01,120.51v53.47h-4.92v-34.38c-1.91,3.67-4.27,7.05-6.9,8.87l-1.4,.97-1.4-.97c-2.63-1.82-4.99-5.2-6.9-8.86v34.38h-4.92v-53.47h4.92v4.61c0,2.48,3.93,13.49,8.3,18.08,4.36-4.58,8.3-15.6,8.3-18.08v-4.61h4.92Z"/><path class="uuid-da233536-627d-44cb-875b-03ac36fe3c95" d="M495.76,173.98h-4.92v-53.47h4.92v53.47Z"/><path class="uuid-da233536-627d-44cb-875b-03ac36fe3c95" d="M523.21,120.51v53.47h-4.92v-3.98c-2.86-1.36-8.39-5.07-12.33-14.43-.13-.31-.25-.63-.37-.95v19.35h-4.92v-53.47h4.92v11.22c0,6.63,1.74,14.42,4.91,21.94,2.48,5.88,5.55,9.02,7.79,10.65v-43.81h4.92Z"/><path class="uuid-da233536-627d-44cb-875b-03ac36fe3c95" d="M555.85,147.72h-3.92v13.82c0,7.91-4.16,12.45-11.42,12.45-7.68,0-11.42-3.67-11.42-11.22v-26.89c0-6.6,1.18-15.36,11.42-15.36s11.42,8.21,11.42,15.36h-4.92c0-9.68-2.82-10.45-6.5-10.45-3.43,0-6.5,.8-6.5,10.45v26.89c0,4.83,1.52,6.3,6.5,6.3,3.22,0,6.5-.9,6.5-7.53v-13.82h-3.92v-4.92h12.75v4.92Z"/><path class="uuid-ce618b4d-5a32-46f9-a1bd-4ec1c946a8f7" d="M353.6,205.67v31.64h13.02v6.13h-13.02v32.53h-6.13v-70.37c-9.98-1.01-15.62-6.73-18.77-9.95-.57-.59-1.08-1.11-1.54-1.51-2.88-2.56-7.17-5.48-11.26-4.92-2.67,.37-5.15,2.28-7.35,5.7l-5.15-3.33c3.22-4.98,7.15-7.83,11.67-8.45,5.06-.69,10.65,1.52,16.16,6.41,.55,.49,1.16,1.11,1.85,1.81,3.23,3.3,8.11,8.28,17.45,8.28,15.23,0,19.13-6.49,19.29-6.77l5.41,2.88c-.2,.39-4.88,8.97-21.63,9.92Z"/><path class="uuid-da233536-627d-44cb-875b-03ac36fe3c95" d="M378.76,228.53v16.97h10.06v4.8h-10.06v20.86h13.61v4.8h-18.42v-52.25h18.42v4.81h-13.61Z"/><path class="uuid-da233536-627d-44cb-875b-03ac36fe3c95" d="M410.34,276.01c-4.44,0-8.71-1.86-11.6-5.35-4.14-4.98-2.85-13.18,.97-16.64,2.66-2.41,6.63-3.06,9.89-1.62,3.58,1.58,5.63,5.18,5.63,9.86h-4.81c0-2.73-.98-4.67-2.77-5.46-1.55-.69-3.45-.37-4.72,.78-1.94,1.76-2.96,7.06-.5,10.01,3.56,4.28,9.22,4.26,12.98,2.43,4.39-2.14,6.34-6.51,5.21-11.68-1.54-7.03-5.23-9.12-15.68-14.1-6.85-3.27-7.86-8.11-7.86-10.7,.01-3.69,2.11-7.35,5-8.71,3.09-1.45,6.2-1.61,8.77-.45,2.28,1.02,3.94,3,4.69,5.55,1.39,4.74-.91,8.08-2.49,9.31l-2.98-3.76c.17-.15,1.65-1.5,.86-4.19-.35-1.2-1.06-2.07-2.05-2.52-1.27-.57-2.95-.42-4.75,.42-.93,.44-2.23,2.2-2.24,4.38,0,2.55,1.76,4.75,5.12,6.35,10.09,4.82,16.19,7.73,18.3,17.41,1.93,8.8-2.76,14.56-7.79,17.02-2.31,1.13-4.77,1.68-7.17,1.68Z"/><path class="uuid-da233536-627d-44cb-875b-03ac36fe3c95" d="M452.05,223.73v4.81h-13.61v47.44h-4.8v-47.44h-13.61v-4.81h32.03Z"/></svg>